<svg xmlns="http://www.w3.org/2000/svg" width="10.003" height="18.512" viewBox="0 0 10.003 18.512">
  <path id="Path_3" data-name="Path 3" d="M31.708,0h-2.4a4.216,4.216,0,0,0-4.44,4.555v2.1H22.459a.377.377,0,0,0-.377.377v3.043a.377.377,0,0,0,.377.377h2.414v7.675a.377.377,0,0,0,.377.377H28.4a.377.377,0,0,0,.377-.377V10.453H31.6a.377.377,0,0,0,.377-.377V7.032a.377.377,0,0,0-.377-.377H28.772V4.875c0-.856.2-1.29,1.318-1.29h1.617a.377.377,0,0,0,.377-.377V.38A.377.377,0,0,0,31.708,0Z" transform="translate(-22.082 0.007)" fill="#fff"/>
</svg>
