<svg id="Group_3" data-name="Group 3" xmlns="http://www.w3.org/2000/svg" width="18.51" height="15.043" viewBox="0 0 18.51 15.043">
  <path id="Path_5" data-name="Path 5" d="M18.51,49.78a7.911,7.911,0,0,1-2.187.6,3.773,3.773,0,0,0,1.67-2.1,7.585,7.585,0,0,1-2.406.918,3.792,3.792,0,0,0-6.564,2.591,3.907,3.907,0,0,0,.09.865A10.745,10.745,0,0,1,1.29,48.684a3.792,3.792,0,0,0,1.166,5.072A3.747,3.747,0,0,1,.74,53.288v.042a3.812,3.812,0,0,0,3.04,3.728,3.792,3.792,0,0,1-.993.125,3.355,3.355,0,0,1-.722-.065,3.831,3.831,0,0,0,3.546,2.644A7.625,7.625,0,0,1,.906,61.379,7.108,7.108,0,0,1,0,61.336a10.684,10.684,0,0,0,5.821,1.7,10.726,10.726,0,0,0,10.8-10.8c0-.168-.005-.33-.014-.49A7.57,7.57,0,0,0,18.51,49.78Z" transform="translate(0 -47.996)" fill="#fff"/>
</svg>
