<svg id="Group_5" data-name="Group 5" xmlns="http://www.w3.org/2000/svg" width="18.509" height="12.726" viewBox="0 0 18.509 12.726">
  <path id="Path_9" data-name="Path 9" d="M17.724,81.226c-.5-.893-1.047-1.057-2.156-1.12S11.672,80,9.258,80s-5.207.032-6.314.106-1.653.227-2.16,1.121S0,83.654,0,86.359v.009c0,2.693.266,4.244.783,5.124s1.052,1.058,2.159,1.13,3.9.1,6.315.1,5.2-.038,6.311-.1,1.654-.237,2.156-1.13c.522-.883.786-2.431.786-5.124V86.36C18.51,83.654,18.247,82.118,17.724,81.226ZM6.941,89.834V82.889l5.784,3.471Z" transform="translate(0 -80)" fill="#fff"/>
</svg>
